<?xml version="1.0" standalone="no"?><!DOCTYPE svg PUBLIC "-//W3C//DTD SVG 1.1//EN" "http://www.w3.org/Graphics/SVG/1.1/DTD/svg11.dtd"><svg t="1671698804863" class="icon" viewBox="0 0 1024 1024" version="1.1" xmlns="http://www.w3.org/2000/svg" p-id="5173" xmlns:xlink="http://www.w3.org/1999/xlink" width="48" height="48"><path d="M588.177274 1023.65878l14.928357-0.213262a139.900033 139.900033 0 0 0 125.867378-150.563145c-1.706098-17.999334-3.966678-35.956015-6.653782-53.870044l-4.393202-26.743085-5.032989-26.103299h73.404865c110.896368 0 155.553482-53.955348 152.56781-147.065645l-0.426524-8.829057-0.682439-9.084972-44.785072-262.227257c-15.525492-107.228257-55.448184-164.425192-147.918694-168.007998l-9.383538-0.170609-549.107631 0.170609a93.323559 93.323559 0 0 0-100.617128 84.067978L85.475508 262.952349v411.85205c0.511829 25.762079 11.644119 50.201933 30.795068 67.476174 17.06098 15.354882 39.026991 23.885372 59.286905 24.141286l7.464178-0.298567h110.555149a396.027991 396.027991 0 0 1 82.489836 6.397868l4.17994 0.853049 8.829057 10.023325c10.79107 13.051649 20.217261 27.212263 28.065312 42.225925l5.630123 11.388204 5.032989 11.686771 31.904032 79.41886a136.317228 136.317228 0 0 0 120.450517 95.200267l8.01866 0.341219z m-408.73842-342.669776a8.01866 8.01866 0 0 1-6.013996-2.047318 8.743752 8.743752 0 0 1-2.303232-3.412196L170.780407 674.036654V263.762746a8.01866 8.01866 0 0 1 2.644451-5.800733c1.279573-1.151616 2.985671-1.876708 6.525825-1.962013l97.716761 0.127957v424.733089l-98.22859 0.127958zM599.010996 938.353882h-9.810063c-20.259913-0.213262-38.259247-12.36921-47.045651-32.970343l-2.132623-5.843386-33.012996-82.489836a330.129957 330.129957 0 0 0-64.703765-102.323226l-10.663112-10.919027-8.615795-8.487837-11.814728-2.687105c-15.952016-3.625458-32.074642-6.397867-48.197268-8.402532L362.972343 256.127957h372.697101c40.946351 0 57.922026 16.250583 68.841053 71.058981l1.535488 8.103965 2.687104 16.975675L853.219593 612.147951l0.51183 6.397867 0.554482 11.686771c0.725092 38.216594-12.027991 49.562146-60.77974 50.543152l-7.208264 0.042653h-154.615129a21.326225 21.326225 0 0 0-20.643785 26.700433l6.952349 26.700433c12.582473 48.197268 21.283572 97.332889 26.017994 145.999334 2.132622 27.724092-16.933022 52.24925-40.263912 57.367544l-4.691769 0.767744z" fill="#707070" p-id="5174"></path></svg>