<?xml version="1.0" standalone="no"?><!DOCTYPE svg PUBLIC "-//W3C//DTD SVG 1.1//EN" "http://www.w3.org/Graphics/SVG/1.1/DTD/svg11.dtd"><svg t="1671689714742" class="icon" viewBox="0 0 1024 1024" version="1.1" xmlns="http://www.w3.org/2000/svg" p-id="992" xmlns:xlink="http://www.w3.org/1999/xlink" width="48" height="48"><path d="M171.9296 740.7616a1269.76 1269.76 0 0 1-20.8896-36.352 408.7808 408.7808 0 1 1 150.528 157.8496l-19.2-11.2128-100.0448 27.2896a30.6688 30.6688 0 0 1-37.632-37.632l27.2384-99.9424z m62.5664 3.6352l-16.5376 60.672 60.672-16.5376a30.6688 30.6688 0 0 1 23.4496 3.072c10.3936 5.9904 20.736 12.032 31.0272 18.1248a347.4432 347.4432 0 1 0-128-134.2976c3.5328 6.656 12.3392 21.9136 26.1632 45.2608 4.2496 7.168 5.376 15.7184 3.2256 23.7056z m139.8784-67.7888a30.6688 30.6688 0 1 1 39.168-47.1552 152.5248 152.5248 0 0 0 97.9456 35.328c36.352 0 70.6048-12.5952 97.8944-35.328a30.6688 30.6688 0 1 1 39.2192 47.1552c-38.5024 32.0512-87.04 49.5616-137.1136 49.5104a213.8112 213.8112 0 0 1-137.1136-49.5104z" p-id="993" fill="#707070"></path></svg>