<?xml version="1.0" standalone="no"?><!DOCTYPE svg PUBLIC "-//W3C//DTD SVG 1.1//EN" "http://www.w3.org/Graphics/SVG/1.1/DTD/svg11.dtd"><svg t="1671671041185" class="icon" viewBox="0 0 1024 1024" version="1.1" xmlns="http://www.w3.org/2000/svg" p-id="2440" xmlns:xlink="http://www.w3.org/1999/xlink" width="48" height="48"><path d="M982.186667 940.8c14.72 0 28.16 7.893333 35.413333 20.48 7.253333 12.586667 7.253333 28.16 0 40.96-7.253333 12.586667-20.906667 20.48-35.413333 20.48H123.306667c-67.84 0-122.666667-54.826667-122.666667-122.666667V41.173333C0.64 26.453333 8.533333 13.013333 21.12 5.76c12.586667-7.253333 28.16-7.253333 40.96 0 12.586667 7.253333 20.48 20.693333 20.48 35.413333v858.88c0 22.613333 18.346667 40.96 40.96 40.96h858.666667z m0 0" fill="#515151" p-id="2441"></path><path d="M567.893333 587.946667c7.68 7.68 17.92 11.946667 28.8 11.946666 10.88 0 21.12-4.48 28.8-12.16l209.066667-211.84c15.786667-16.213333 15.786667-42.026667 0.213333-58.24l1.28 1.28c-7.466667-7.68-17.92-12.16-28.8-11.946666-10.88 0-21.12 4.48-28.8 12.16l-152.96 155.093333a40.512 40.512 0 0 1-57.6 0.213333l-102.186666-103.466666c-7.466667-7.68-17.92-11.946667-28.586667-11.946667s-21.12 4.266667-28.586667 11.946667l-130.133333 131.84c-15.786667 16.213333-15.786667 42.026667 0 58.24l-1.28-1.28c7.68 7.68 17.92 11.946667 28.8 11.946666 10.88 0 21.12-4.48 28.8-12.16l73.813333-74.666666a40.512 40.512 0 0 1 57.6-0.213334l101.76 103.253334z m0 0" fill="#515151" p-id="2442"></path></svg>