<?xml version="1.0" standalone="no"?><!DOCTYPE svg PUBLIC "-//W3C//DTD SVG 1.1//EN" "http://www.w3.org/Graphics/SVG/1.1/DTD/svg11.dtd"><svg t="1671671006360" class="icon" viewBox="0 0 1024 1024" version="1.1" xmlns="http://www.w3.org/2000/svg" p-id="2101" width="48" height="48" xmlns:xlink="http://www.w3.org/1999/xlink"><path d="M503.095 892.878H336.799c-26.698 0-70.61-9.102-97.472-19.941l-45.918-46.012c-10.751-26.741-19.78-70.7-19.78-97.586V286.057c0-26.847 9.032-70.754 19.79-97.486l45.851-45.753c26.67-10.704 70.597-19.693 97.529-19.693h199.177c25.038 0 64.089 15.819 81.936 33.195l144.813 140.911c17.74 17.272 33.894 55.486 33.894 80.177v91.656c0 16.542 13.409 29.951 29.951 29.951s29.951-13.409 29.951-29.951v-91.656c0-41.309-22.358-94.229-52.016-123.103l-144.811-140.91c-29.378-28.603-82.564-50.172-123.717-50.172H336.799c-37.3 0-92.995 11.837-126.797 26.948a29.944 29.944 0 0 0-8.932 6.142l-54.09 53.973a29.932 29.932 0 0 0-6.177 8.956c-15.183 33.891-27.077 89.595-27.077 126.815v443.282c0 37.248 11.879 92.975 27.044 126.868a29.928 29.928 0 0 0 6.139 8.925l54.127 54.239a29.956 29.956 0 0 0 8.947 6.172c34.065 15.274 89.769 27.239 126.817 27.239h166.296c16.541 0 29.951-13.409 29.951-29.951 0-16.543-13.411-29.953-29.952-29.953z" fill="#E75934" p-id="2102"></path><path d="M546.767 230.464a29.951 29.951 0 0 0-51.159 21.15v133.588c0 16.542 13.409 29.951 29.951 29.951h133.22a0.14 0.14 0 0 1 0.029 0c16.542 0 29.951-13.409 29.951-29.951 0-8.662-3.677-16.466-9.556-21.934L546.767 230.464zM845.311 862.507c35.916-38.253 57.953-89.684 57.953-146.171 0-117.852-95.88-213.73-213.732-213.73-117.851 0-213.73 95.878-213.73 213.73s95.879 213.73 213.73 213.73c40.105 0 77.659-11.112 109.763-30.406l40.12 40.12c11.483 11.483 30.101 11.483 41.584 0 11.483-11.483 11.483-30.101 0-41.585l-35.688-35.688zM535.705 716.336c0-84.82 69.007-153.827 153.827-153.827 84.822 0 153.829 69.007 153.829 153.827s-69.007 153.827-153.829 153.827c-84.82 0-153.827-69.007-153.827-153.827zM455.173 569.403c0-16.542-13.409-29.951-29.951-29.951H287.445c-16.542 0-29.951 13.409-29.951 29.951s13.409 29.951 29.951 29.951h137.777c16.541 0 29.951-13.409 29.951-29.951zM287.445 698.194c-16.542 0-29.951 13.409-29.951 29.951s13.409 29.951 29.951 29.951H389.28c16.542 0 29.951-13.409 29.951-29.951s-13.409-29.951-29.951-29.951H287.445z" fill="#E75934" p-id="2103"></path></svg>